<?xml version="1.0" ?><!-- Uploaded to: SVG Repo, www.svgrepo.com, Generator: SVG Repo Mixer Tools -->
<svg fill="#FFFFFF" width="800px" height="800px" viewBox="0 0 64 64" data-name="Layer 1" id="Layer_1" xmlns="http://www.w3.org/2000/svg"><title/><polygon points="49.5 14.833 49.5 10.194 50 10 32 3 14 10 32 17 48.5 10.583 48.5 14.833 46 19 52 19 49.5 14.833"/><path d="M40.7262,41.5H32.5v9h7.1095A38.951,38.951,0,0,0,40.7262,41.5Z"/><path d="M50.97473,41.5h-9.249a39.44628,39.44628,0,0,1-1.10883,9H48.433A18.86451,18.86451,0,0,0,50.97473,41.5Z"/><path d="M48.433,31.5H40.61688a39.44628,39.44628,0,0,1,1.10883,9h9.249A18.86451,18.86451,0,0,0,48.433,31.5Z"/><path d="M36.24182,22.49323A19.2581,19.2581,0,0,1,40.35571,30.5H47.8252A19.02539,19.02539,0,0,0,36.24182,22.49323Z"/><path d="M39.6095,31.5H32.5v9h8.2262A38.951,38.951,0,0,0,39.6095,31.5Z"/><path d="M29.444,59.80786a19.0431,19.0431,0,0,0,2.056.16687V51.5H24.52356C25.65155,55.45129,27.392,58.46375,29.444,59.80786Z"/><path d="M32.5,59.97473c.62579-.01636,1.24371-.0603,1.85315-.13592,2.09656-1.38416,3.8529-4.40064,4.98962-8.33881H32.5Z"/><path d="M34.35315,22.16119c-.60944-.07562-1.22736-.11956-1.85315-.13592V30.5h6.84277C38.20605,26.56183,36.44971,23.54535,34.35315,22.16119Z"/><path d="M23.22107,50.5a40.47987,40.47987,0,0,1-1.067-9H13.02527a18.86457,18.86457,0,0,0,2.54162,9Z"/><path d="M16.17474,30.5h7.30939a19.03491,19.03491,0,0,1,4.00153-7.93658A19.0262,19.0262,0,0,0,16.17474,30.5Z"/><path d="M31.5,22.02527a19.0431,19.0431,0,0,0-2.056.16687C27.392,23.53625,25.65155,26.54871,24.52356,30.5H31.5Z"/><path d="M27.48566,59.43658A19.03561,19.03561,0,0,1,23.48413,51.5H16.17474A19.0262,19.0262,0,0,0,27.48566,59.43658Z"/><path d="M47.8252,51.5H40.35571a19.2581,19.2581,0,0,1-4.11389,8.00677A19.02539,19.02539,0,0,0,47.8252,51.5Z"/><path d="M23.15387,40.5H31.5v-9H24.26318A39.33657,39.33657,0,0,0,23.15387,40.5Z"/><path d="M13.02527,40.5h9.12878a40.47987,40.47987,0,0,1,1.067-9H15.56689A18.86457,18.86457,0,0,0,13.02527,40.5Z"/><path d="M24.26318,50.5H31.5v-9H23.15387A39.33657,39.33657,0,0,0,24.26318,50.5Z"/><path d="M32,18a.9858.9858,0,0,1-.3623-.06836L22,14.18365v9.52247a19.8297,19.8297,0,0,1,20,0V14.18365l-9.6377,3.748A.9858.9858,0,0,1,32,18Z"/></svg>