<svg width="49" height="25" viewBox="0 0 49 25" fill="none" xmlns="http://www.w3.org/2000/svg">
<path d="M48.0769 14.4219L-0.000244141 19.4728L0.579716 24.9884L48.6569 19.9375L48.0769 14.4219Z" fill="#FFE900"/>
<path d="M23.3016 4.07907C22.2041 4.07892 21.1311 4.40413 20.2185 5.01356C19.3059 5.623 18.5947 6.48929 18.1747 7.50284C17.7547 8.51639 17.6449 9.63168 17.8592 10.7076C18.0734 11.7836 18.6021 12.7718 19.3784 13.5474C20.1546 14.3229 21.1435 14.851 22.22 15.0647C23.2965 15.2784 24.4122 15.1681 25.4261 14.7479C26.4399 14.3277 27.3062 13.6164 27.9156 12.7039C28.5249 11.7915 28.8498 10.7189 28.8491 9.62182C28.8497 8.89359 28.7065 8.17241 28.4279 7.49954C28.1492 6.82667 27.7406 6.21533 27.2253 5.70051C26.71 5.18568 26.0983 4.77748 25.425 4.49925C24.7517 4.22103 24.0301 4.07824 23.3016 4.07907V4.07907ZM23.3016 12.7055C22.6914 12.7055 22.095 12.5247 21.5876 12.1858C21.0803 11.847 20.6849 11.3654 20.4514 10.8019C20.2179 10.2384 20.1568 9.6184 20.2758 9.02022C20.3948 8.42204 20.6887 7.87258 21.1201 7.44132C21.5516 7.01006 22.1013 6.71636 22.6997 6.59738C23.2982 6.47839 23.9185 6.53946 24.4822 6.77286C25.0459 7.00625 25.5277 7.4015 25.8667 7.90861C26.2057 8.41572 26.3866 9.01192 26.3866 9.62182C26.3858 10.4391 26.0604 11.2227 25.4819 11.8003C24.9035 12.3779 24.1192 12.7024 23.3016 12.7024V12.7055Z" fill="black"/>
<path d="M41.1553 4.07905C40.0579 4.07905 38.9852 4.40431 38.0728 5.01371C37.1604 5.6231 36.4492 6.48925 36.0293 7.50263C35.6093 8.51602 35.4995 9.63112 35.7135 10.7069C35.9276 11.7827 36.4561 12.7709 37.232 13.5465C38.008 14.3221 38.9966 14.8503 40.0729 15.0643C41.1491 15.2783 42.2647 15.1685 43.2785 14.7487C44.2924 14.329 45.1589 13.6181 45.7686 12.7061C46.3782 11.7941 46.7036 10.7218 46.7036 9.62496C46.7051 8.89625 46.5626 8.17443 46.2843 7.50091C46.0059 6.82739 45.5973 6.21543 45.0818 5.70016C44.5663 5.18488 43.9541 4.77643 43.2803 4.49824C42.6065 4.22005 41.8843 4.07759 41.1553 4.07905V4.07905ZM41.1553 12.7055C40.5451 12.7055 39.9487 12.5246 39.4413 12.1858C38.934 11.847 38.5386 11.3654 38.3051 10.8019C38.0716 10.2384 38.0105 9.61838 38.1295 9.0202C38.2485 8.42202 38.5424 7.87256 38.9738 7.4413C39.4053 7.01003 39.955 6.71634 40.5534 6.59736C41.1519 6.47837 41.7722 6.53944 42.3359 6.77284C42.8996 7.00623 43.3814 7.40148 43.7204 7.90859C44.0594 8.4157 44.2403 9.0119 44.2403 9.6218C44.2395 10.4391 43.9141 11.2226 43.3356 11.8003C42.7572 12.3779 41.9729 12.7023 41.1553 12.7023V12.7055Z" fill="black"/>
<path d="M37.7768 3.75563V1.29105H26.6809V3.75563H30.996V14.872H33.4617V3.75563H37.7768Z" fill="black"/>
<path d="M8.30962 6.83698V9.30157H11.7174C10.9303 11.3669 9.43053 12.7015 7.69261 12.7015C6.93236 12.7004 6.18413 12.5118 5.51417 12.1526C4.84421 11.7934 4.2732 11.2747 3.85171 10.6422C3.43022 10.0098 3.17124 9.28323 3.09772 8.52687C3.02421 7.77052 3.13841 7.00771 3.43023 6.306C3.72204 5.6043 4.18246 4.98534 4.77071 4.50395C5.35896 4.02256 6.0569 3.69358 6.8027 3.54616C7.54851 3.39874 8.31918 3.43742 9.04647 3.65877C9.77375 3.88012 10.4352 4.27732 10.9723 4.81518L12.7228 3.06459C11.7318 2.07376 10.4693 1.39879 9.09461 1.125C7.71997 0.851207 6.29498 0.990873 4.99973 1.52635C3.70447 2.06182 2.59709 2.96907 1.81753 4.13344C1.03797 5.29781 0.621211 6.66704 0.619932 8.06809C0.616118 8.99764 0.797083 9.91869 1.15232 10.7778C1.50756 11.6368 2.03 12.4168 2.68929 13.0724C3.34488 13.7332 4.12435 14.2584 4.98312 14.6179C5.8419 14.9774 6.76314 15.1643 7.69419 15.1677C10.1092 15.1677 12.2822 13.6132 13.5629 11.1455V14.8712H16.0286V6.83698H8.30962Z" fill="black"/>
</svg>