<?xml version="1.0" encoding="iso-8859-1"?>
<!-- Uploaded to: SVG Repo, www.svgrepo.com, Generator: SVG Repo Mixer Tools -->
<!DOCTYPE svg PUBLIC "-//W3C//DTD SVG 1.1//EN" "http://www.w3.org/Graphics/SVG/1.1/DTD/svg11.dtd">
<svg fill="#FFFFFF" version="1.1" id="Capa_1" xmlns="http://www.w3.org/2000/svg" xmlns:xlink="http://www.w3.org/1999/xlink" 
	 width="800px" height="800px" viewBox="0 0 198.377 198.377"
	 xml:space="preserve">
<g>
	<g>
		<path d="M156.281,102.536c10.113-6.807,17.071-20.219,17.071-32.301c0-17.045-13.822-30.868-30.862-30.868
			c-12.191,0-22.698,7.076-27.708,17.33c2.003,2.487,3.265,5.608,3.265,9.051v25.426c2.842,4.539,6.451,8.54,10.654,11.374
			c-3.731,0.94-7.267,2.265-10.654,3.842v21.802c0,7.976-6.49,14.471-14.472,14.471h-9.977l5.759,5.757v5.948
			c29.306,8.427,99.021,5.384,99.021-9.144C198.381,129.667,180.462,108.665,156.281,102.536z M142.49,159.008l-15.661-15.656
			l13.185-31.862h-0.145l-5.116-5.878c2.479,0.897,5.056,1.423,7.737,1.423c2.67,0,5.247-0.525,7.716-1.412l-5.111,5.867h-0.131
			l13.189,31.862L142.49,159.008z"/>
		<path d="M103.575,55.937H9.805C4.411,55.937,0,60.35,0,65.742v62.441c0,5.391,4.411,9.805,9.805,9.805h42.884v8.356H22.69
			l-4.004,4.001v3.999h76.018v-3.999l-4.003-4.001H60.694v-8.356h42.886c5.394,0,9.804-4.414,9.804-9.805V65.742
			C113.384,60.35,108.968,55.937,103.575,55.937z"/>
	</g>
</g>
</svg>